<svg viewBox="0 0 103 104" fill="none" xmlns="http://www.w3.org/2000/svg">
<path fill-rule="evenodd" clip-rule="evenodd" d="M0 51.9545C0 23.2608 23.2608 0 51.9545 0C52.6793 0 53.4006 0.0148408 54.1181 0.0442352C81.1136 1.7836 102.471 24.2302 102.471 51.6651C102.471 80.2344 79.3109 103.394 50.7415 103.394C43.5306 103.394 36.6643 101.919 30.428 99.2536C12.4773 91.0708 0 72.9698 0 51.9545ZM56.9545 26.6414C56.9545 23.88 54.7159 21.6414 51.9545 21.6414C49.1931 21.6414 46.9545 23.88 46.9545 26.6414L46.9545 57.1212C46.9545 59.9125 48.3806 62.5103 50.7355 64.0089L68.255 75.1577C70.5847 76.6402 73.6751 75.9534 75.1577 73.6237C76.6402 71.294 75.9534 68.2036 73.6237 66.721L60.7304 58.5162C58.3787 57.0196 56.9545 54.4253 56.9545 51.6377L56.9545 26.6414Z" fill="url(#paint0_linear_25_51)"/>
<defs>
<linearGradient id="paint0_linear_25_51" x1="52.1418" y1="-28.9855" x2="52.1418" y2="132.958" gradientUnits="userSpaceOnUse">
<stop stop-color="#2D70F2"/>
<stop offset="1" stop-color="#062D78"/>
</linearGradient>
</defs>
</svg>
