<svg width="28" height="25" viewBox="0 0 28 25" fill="none" xmlns="http://www.w3.org/2000/svg">
<path fill-rule="evenodd" clip-rule="evenodd" d="M14.2807 1.00009C9.71779 0.983783 5.4781 3.0781 3.10551 6.52042C0.732927 9.96274 0.573657 14.2507 2.6857 17.823L2.94612 18.272C3.15958 18.6254 3.20423 19.0395 3.07013 19.422C2.69851 20.2952 1.24785 21.8813 1 22.7881C1 23.2481 1.14881 23.511 1.70686 23.5C2.69528 23.3069 4.80874 22.3645 5.76117 22.0616C6.17138 21.9616 6.60754 21.9848 7.00128 22.1273C7.36091 22.2806 8.09258 22.6749 8.11738 22.6749C12.8959 24.8976 18.7319 24.2844 22.7866 21.1336C26.8412 17.9828 28.2727 12.9485 26.3848 8.47967C24.4968 4.01082 19.6813 1.03511 14.2807 1.00009Z" fill="#2D70F2" stroke="#2D70F2" stroke-linecap="round" stroke-linejoin="round"/>
</svg>
