<svg viewBox="0 0 104 103" fill="none" xmlns="http://www.w3.org/2000/svg">
<path fill-rule="evenodd" clip-rule="evenodd" d="M56.1991 1.20274C53.584 -0.400912 50.29 -0.400911 47.6749 1.20274L37.2783 7.57812C36.3437 8.15122 35.3031 8.52995 34.2188 8.69167L22.1565 10.4907C19.1224 10.9432 16.5991 13.0605 15.6266 15.9699L11.7604 27.5366C11.4128 28.5763 10.8591 29.5353 10.1325 30.3562L2.04858 39.4878C0.015182 41.7847 -0.556804 45.0286 0.568368 47.8825L5.04154 59.2282C5.44365 60.2481 5.63593 61.3386 5.6069 62.4345L5.28397 74.626C5.20274 77.6926 6.84971 80.5452 9.54608 82.0082L20.2656 87.8242C21.2292 88.347 22.0775 89.0588 22.7597 89.917L30.3488 99.4637C32.2578 101.865 35.3531 102.992 38.359 102.379L50.3091 99.9441C51.3833 99.7253 52.4907 99.7253 53.5649 99.9441L65.515 102.379C68.5209 102.992 71.6162 101.865 73.5252 99.4637L81.1143 89.917C81.7965 89.0588 82.6448 88.347 83.6084 87.8242L94.3279 82.0082C97.0243 80.5452 98.6713 77.6926 98.59 74.626L98.2671 62.4345C98.2381 61.3386 98.4304 60.2481 98.8325 59.2282L103.306 47.8825C104.431 45.0286 103.859 41.7847 101.825 39.4878L93.7415 30.3562C93.0149 29.5353 92.4612 28.5763 92.1136 27.5366L88.2474 15.9699C87.2749 13.0605 84.7516 10.9432 81.7175 10.4907L69.6552 8.69167C68.5709 8.52995 67.5303 8.15122 66.5957 7.57812L56.1991 1.20274ZM34.5589 40.901C39.3577 40.901 43.2479 37.0108 43.2479 32.2119C43.2479 27.4131 39.3577 23.5229 34.5589 23.5229C29.7601 23.5229 25.8699 27.4131 25.8699 32.2119C25.8699 37.0108 29.7601 40.901 34.5589 40.901ZM82.0338 71.3755C82.0338 76.383 77.9744 80.4424 72.967 80.4424C67.9595 80.4424 63.9002 76.383 63.9002 71.3755C63.9002 66.3681 67.9595 62.3087 72.967 62.3087C77.9744 62.3087 82.0338 66.3681 82.0338 71.3755ZM32.8483 65.3378C30.2461 68.4891 30.6911 73.1532 33.8424 75.7554C36.9937 78.3576 41.6578 77.9125 44.26 74.7613L70.5421 42.9338C73.1443 39.7825 72.6992 35.1184 69.5479 32.5162C66.3967 29.914 61.7326 30.3591 59.1304 33.5104L32.8483 65.3378Z" fill="url(#paint0_linear_13_96)"/>
<defs>
<linearGradient id="paint0_linear_13_96" x1="51.937" y1="0" x2="51.937" y2="102.544" gradientUnits="userSpaceOnUse">
<stop stop-color="#2D70F2"/>
<stop offset="1" stop-color="#2654AB"/>
</linearGradient>
</defs>
</svg>
