<svg viewBox="0 0 104 104" fill="none" xmlns="http://www.w3.org/2000/svg">
<path fill-rule="evenodd" clip-rule="evenodd" d="M20 0C8.95431 0 0 8.95431 0 20L0 84C0 95.0457 8.95431 104 20 104L84 104C95.0457 104 104 95.0457 104 84L104 20C104 8.95431 95.0457 0 84 0L20 0ZM26.4783 23.7392C23.7168 23.7392 21.4783 25.9778 21.4783 28.7392L21.4783 74.6957C21.4783 77.4572 23.7168 79.6957 26.4783 79.6957H29.4783C32.2397 79.6957 34.4783 77.4572 34.4783 74.6957V28.7392C34.4783 25.9778 32.2397 23.7392 29.4783 23.7392H26.4783ZM45.2174 60.3912C45.2174 57.6298 47.456 55.3912 50.2174 55.3912H53.2174C55.9788 55.3912 58.2174 57.6298 58.2174 60.3912V74.6956C58.2174 77.457 55.9788 79.6956 53.2174 79.6956H50.2174C47.456 79.6956 45.2174 77.457 45.2174 74.6956V60.3912ZM73.9566 42.9564C71.1951 42.9564 68.9566 45.195 68.9566 47.9564L68.9566 74.6955C68.9566 77.4569 71.1951 79.6955 73.9566 79.6955H76.9566C79.718 79.6955 81.9566 77.4569 81.9566 74.6955L81.9566 47.9564C81.9566 45.195 79.718 42.9564 76.9566 42.9564H73.9566Z" fill="url(#paint0_linear_25_42)"/>
<defs>
<linearGradient id="paint0_linear_25_42" x1="52" y1="0" x2="52" y2="104" gradientUnits="userSpaceOnUse">
<stop stop-color="#2D70F2"/>
<stop offset="1" stop-color="#2255B7"/>
</linearGradient>
</defs>
</svg>
