<svg width="46" height="51" viewBox="0 0 46 51" fill="none" xmlns="http://www.w3.org/2000/svg">
<path d="M38.0771 30.2449V37.3898C38.0771 43.5194 33.1081 48.4884 26.9785 48.4884H24.436H17.2907H14.0985C7.96899 48.4884 3 43.5194 3 37.3898V21.8966C3 16.0514 7.73844 11.313 13.5836 11.313V11.313H24.436" stroke="#2D70F2" stroke-width="5" stroke-linecap="round"/>
<path d="M39.8022 9.47509L41.3285 11.3577L27.198 22.8137C26.8187 23.1211 26.3861 23.3562 25.9218 23.5071L20.8571 25.1531C18.4302 25.9419 16.2579 23.4082 17.408 21.1303L19.7826 16.427L21.9267 17.5095L19.7826 16.427C20.0448 15.9076 20.4178 15.452 20.8751 15.0924L35.1494 3.86644M39.8022 9.47509L35.1494 3.86644M39.8022 9.47509L41.3285 11.3577C43.1339 9.89414 43.3062 7.20152 41.7023 5.51965M39.8022 9.47509L41.7023 5.51965M35.1494 3.86644C36.7618 2.59834 39.074 2.76359 40.4897 4.2481M35.1494 3.86644L40.4897 4.2481M41.7023 5.51965L40.4897 4.2481M41.7023 5.51965L40.4897 4.2481" stroke="#2D70F2" stroke-width="5"/>
</svg>
